<svg width="30" height="30" viewBox="0 0 30 30" fill="none" xmlns="http://www.w3.org/2000/svg">
<path d="M15 2.62268e-06C23.2721 4.06902e-06 30 6.72795 30 15C30 23.2721 23.2721 30 15 30C6.72794 30 1.17635e-06 23.2721 2.62268e-06 15C4.06902e-06 6.72794 6.72795 1.17635e-06 15 2.62268e-06ZM15 28.7868C22.6042 28.7868 28.7868 22.6042 28.7868 15C28.7868 7.39584 22.6042 1.21324 15 1.21324C7.39584 1.21324 1.21324 7.39583 1.21324 15C1.21324 22.6042 7.39583 28.7868 15 28.7868Z" fill="url(#paint0_linear_29_411)"/>
<path d="M12.8675 10.0184C12.9839 9.90202 13.1432 9.84074 13.2964 9.84074C13.4496 9.84074 13.6089 9.90202 13.7253 10.0184L18.278 14.5711C18.3944 14.6876 18.4557 14.8407 18.4557 15.0001C18.4557 15.1594 18.3944 15.3126 18.278 15.429L13.7253 19.9817C13.4863 20.2206 13.1064 20.2206 12.8675 19.9817C12.6285 19.7427 12.6285 19.3628 12.8675 19.1238L16.9912 15L12.8675 10.8763C12.6346 10.6373 12.6346 10.2513 12.8675 10.0184Z" fill="url(#paint1_linear_29_411)"/>
<defs>
<linearGradient id="paint0_linear_29_411" x1="5.13128e-06" y1="1.14087e-07" x2="30" y2="30" gradientUnits="userSpaceOnUse">
<stop stop-color="#1D4FCF"/>
<stop offset="1" stop-color="#0586E8"/>
</linearGradient>
<linearGradient id="paint1_linear_29_411" x1="12.6882" y1="9.84074" x2="21.478" y2="14.7529" gradientUnits="userSpaceOnUse">
<stop stop-color="#1D4FCF"/>
<stop offset="1" stop-color="#0586E8"/>
</linearGradient>
</defs>
</svg>
